<svg width="473.677" height="473.677" xmlns="http://www.w3.org/2000/svg" xml:space="preserve" version="1.1">

 <g>
  <title>Layer 1</title>
  <path id="svg_1" fill="#000000" d="m0,236.84c0,-130.814 106.036,-236.838 236.835,-236.838c130.807,0 236.842,106.028 236.842,236.838c0,130.795 -106.036,236.835 -236.842,236.835c-130.796,-0.004 -236.835,-106.039 -236.835,-236.835z"/>
  <g id="svg_2">
   <path id="svg_3" fill="#FFFFFF" d="m408.84,164.345c-9.88,0.022 -19.756,0.049 -29.636,0.075c-22.217,-49.815 -65.828,-85.797 -120.912,-94.428c-61.374,-9.614 -120.115,18.889 -155.14,69.036c-15.557,22.269 21.005,43.121 36.431,21.035c48.039,-68.774 150.608,-62.559 192.76,4.473c-9.125,0.022 -18.253,0.045 -27.377,0.067c-2.554,0.004 -4.368,1.144 -5.49,2.745c-1.832,1.967 -2.532,4.839 -0.61,7.816c17.378,26.966 34.759,53.936 52.141,80.902c2.921,4.532 9.226,4.495 12.12,-0.045c17.243,-27.052 34.49,-54.104 51.733,-81.16c2.854,-4.473 -0.904,-10.527 -6.02,-10.516z"/>
   <path id="svg_4" fill="#FFFFFF" d="m334.479,312.395c-47.665,68.251 -149.037,62.657 -191.784,-2.909c8.747,-0.022 17.494,-0.045 26.241,-0.067c2.547,-0.007 4.357,-1.137 5.482,-2.734c1.836,-1.963 2.539,-4.843 0.617,-7.827c-17.374,-26.966 -34.756,-53.94 -52.133,-80.902c-2.917,-4.532 -9.226,-4.495 -12.12,0.045c-17.243,27.052 -34.494,54.104 -51.741,81.16c-2.853,4.476 0.905,10.531 6.021,10.519c10.187,-0.026 20.369,-0.052 30.556,-0.079c22.434,48.996 65.663,84.331 120.164,92.869c61.374,9.614 120.115,-18.889 155.132,-69.036c15.552,-22.277 -21.013,-43.125 -36.435,-21.039z"/>
  </g>
  <g id="svg_5"/>
  <g id="svg_6"/>
  <g id="svg_7"/>
  <g id="svg_8"/>
  <g id="svg_9"/>
  <g id="svg_10"/>
  <g id="svg_11"/>
  <g id="svg_12"/>
  <g id="svg_13"/>
  <g id="svg_14"/>
  <g id="svg_15"/>
  <g id="svg_16"/>
  <g id="svg_17"/>
  <g id="svg_18"/>
  <g id="svg_19"/>
 </g>
</svg>