<svg xmlns="http://www.w3.org/2000/svg" version="1.1" xmlns:xlink="http://www.w3.org/1999/xlink" xmlns:svgjs="http://svgjs.com/svgjs" width="512" height="512" x="0" y="0" viewBox="0 0 512 512.00002" style="enable-background:new 0 0 512 512" xml:space="preserve"><g><path xmlns="http://www.w3.org/2000/svg" d="m191.394531 71.039062c0 39.234376-31.804687 71.039063-71.039062 71.039063s-71.039063-31.804687-71.039063-71.039063c0-39.234374 31.804688-71.039062 71.039063-71.039062s71.039062 31.804688 71.039062 71.039062zm0 0" fill="#c76d33" data-original="#c76d33"></path><path xmlns="http://www.w3.org/2000/svg" d="m151.878906 68.976562c0 17.980469-14.574218 32.554688-32.554687 32.554688s-32.554688-14.574219-32.554688-32.554688c0-17.976562 14.574219-32.554687 32.554688-32.554687s32.554687 14.578125 32.554687 32.554687zm0 0" fill="#edb798" data-original="#edb798"></path><path xmlns="http://www.w3.org/2000/svg" d="m449.613281 71.039062c0 39.234376-31.804687 71.039063-71.039062 71.039063s-71.039063-31.804687-71.039063-71.039063c0-39.234374 31.804688-71.039062 71.039063-71.039062s71.039062 31.804688 71.039062 71.039062zm0 0" fill="#c76d33" data-original="#c76d33"></path><path xmlns="http://www.w3.org/2000/svg" d="m412.160156 68.976562c0 17.980469-14.574218 32.554688-32.554687 32.554688s-32.554688-14.574219-32.554688-32.554688c0-17.976562 14.574219-32.554687 32.554688-32.554687s32.554687 14.578125 32.554687 32.554687zm0 0" fill="#edb798" data-original="#edb798"></path><path xmlns="http://www.w3.org/2000/svg" d="m498.929688 274.390625c0-131.230469-111.691407-237.609375-249.464844-237.609375-137.777344 0-249.464844 106.378906-249.464844 237.609375 0 131.226563 111.6875 237.609375 249.464844 237.609375 137.773437 0 249.464844-106.382812 249.464844-237.609375zm0 0" fill="#de8957" data-original="#de8957"></path><path xmlns="http://www.w3.org/2000/svg" d="m41.207031 274.390625c0-124.621094 100.726563-226.820313 228.859375-236.796875-6.792968-.53125-13.664062-.8125-20.601562-.8125-137.777344 0-249.464844 106.382812-249.464844 237.609375s111.6875 237.609375 249.464844 237.609375c6.9375 0 13.808594-.28125 20.601562-.8125-128.132812-9.980469-228.859375-112.179688-228.859375-236.796875zm0 0" fill="#c76d33" data-original="#c76d33"></path><path xmlns="http://www.w3.org/2000/svg" d="m279.710938 244.074219c25.71875 11.554687 43.632812 37.398437 43.632812 67.425781 0 40.800781-33.078125 73.878906-73.878906 73.878906-40.800782 0-73.878906-33.078125-73.878906-73.878906 0-30.027344 17.914062-55.871094 43.632812-67.425781zm0 0" fill="#f5d5c4" data-original="#f5d5c4"></path><path xmlns="http://www.w3.org/2000/svg" d="m279.710938 244.074219c-2.960938 13.976562-15.382813 24.46875-30.246094 24.46875-14.863282 0-27.285156-10.492188-30.246094-24.46875 9.238281-4.144531 19.472656-6.453125 30.246094-6.453125 10.773437 0 21.007812 2.308594 30.246094 6.453125zm0 0" fill="#423e4f" data-original="#423e4f"></path><path xmlns="http://www.w3.org/2000/svg" d="m145.945312 261.167969h-17.097656c-4.265625 0-7.726562 3.457031-7.726562 7.726562 0 4.265625 3.460937 7.722657 7.726562 7.722657h17.097656c4.269532 0 7.726563-3.457032 7.726563-7.722657 0-4.269531-3.457031-7.726562-7.726563-7.726562zm0 0" fill="#ff9db0" data-original="#ff9db0"></path><path xmlns="http://www.w3.org/2000/svg" d="m148.253906 222.34375c-4.265625 0-7.726562 3.457031-7.726562 7.722656v17.5625c0 4.265625 3.460937 7.726563 7.726562 7.726563s7.726563-3.460938 7.726563-7.726563v-17.5625c0-4.265625-3.460938-7.722656-7.726563-7.722656zm0 0" fill="#423e4f" data-original="#423e4f"></path><path xmlns="http://www.w3.org/2000/svg" d="m370.082031 261.167969h-17.101562c-4.265625 0-7.722657 3.457031-7.722657 7.726562 0 4.265625 3.457032 7.722657 7.722657 7.722657h17.101562c4.265625 0 7.726563-3.457032 7.726563-7.722657 0-4.269531-3.460938-7.726562-7.726563-7.726562zm0 0" fill="#ff9db0" data-original="#ff9db0"></path><g xmlns="http://www.w3.org/2000/svg" fill="#423e4f"><path d="m358.402344 247.628906v-17.5625c0-4.265625-3.457032-7.722656-7.726563-7.722656s-7.726562 3.457031-7.726562 7.722656v17.5625c0 4.265625 3.457031 7.726563 7.726562 7.726563s7.726563-3.460938 7.726563-7.726563zm0 0" fill="#423e4f" data-original="#423e4f"></path><path d="m282 289.808594c-3.214844-2.808594-8.09375-2.484375-10.902344.730468-1.910156 2.179688-4.789062 3.429688-7.910156 3.429688-3.117188 0-6-1.25-7.90625-3.429688-1.449219-1.652343-3.621094-2.632812-5.816406-2.632812-2.199219 0-4.371094.976562-5.820313 2.632812-1.902343 2.179688-4.785156 3.429688-7.90625 3.429688-3.117187 0-6-1.246094-7.90625-3.429688-2.808593-3.214843-7.691406-3.539062-10.902343-.734374-3.210938 2.808593-3.542969 7.691406-.730469 10.902343 4.839843 5.539063 11.960937 8.714844 19.539062 8.714844 4.941407 0 9.679688-1.355469 13.726563-3.828125 4.046875 2.472656 8.785156 3.828125 13.722656 3.828125 7.578125 0 14.703125-3.175781 19.542969-8.714844 2.808593-3.210937 2.480469-8.089843-.730469-10.898437zm0 0" fill="#423e4f" data-original="#423e4f"></path></g></g></svg>