<svg xmlns="http://www.w3.org/2000/svg" version="1.1" xmlns:xlink="http://www.w3.org/1999/xlink" xmlns:svgjs="http://svgjs.com/svgjs" width="512" height="512" x="0" y="0" viewBox="0 0 497 497" style="enable-background:new 0 0 512 512" xml:space="preserve"><g><g xmlns="http://www.w3.org/2000/svg"><path d="m420.368 156.968c-32.613-7.526-53.649-39.59-47.259-72.718 6.539-33.895 39.314-56.079 73.21-49.54 18.339 3.538 33.248 14.757 42.029 29.669z" fill="#fbe5c8" data-original="#fbe5c8"></path><path d="m495.857 107.929c-6.539 33.895-39.313 56.069-73.217 49.528-.767-.148-1.522-.304-2.272-.489-3.939-11.724-4.698-23.865-.753-36.067 13.983-43.25 46.458-54.303 68.733-56.523 7.461 12.659 10.51 27.995 7.509 43.551z" fill="#ffc9d3" data-original="#ffc9d3"></path><path d="m76.632 156.968c32.613-7.526 53.649-39.59 47.259-72.718-6.539-33.895-39.314-56.079-73.21-49.54-18.339 3.537-33.248 14.756-42.029 29.668z" fill="#fbdab2" data-original="#fbdab2"></path><path d="m1.143 107.929c6.539 33.895 39.313 56.069 73.217 49.528.767-.148 1.522-.304 2.272-.489 3.939-11.724 4.698-23.865.753-36.067-13.983-43.249-46.458-54.303-68.733-56.523-7.461 12.659-10.51 27.995-7.509 43.551z" fill="#ffb2c1" data-original="#ffb2c1"></path><path d="m461.936 304.487.793-.773c31.036-30.267 31.036-80.161 0-110.428l-.792-.773c11.36-42.29-14.729-85.543-57.435-95.222l-.026-.006-.424-1.45c-12.134-41.472-55.97-64.884-97.185-51.905l-1.559.491-2.297-2.295c-30.112-30.085-78.905-30.085-109.017 0l-2.298 2.295-1.557-.49c-41.216-12.98-85.052 10.432-97.186 51.904l-.424 1.449-.029.007c-42.706 9.679-68.795 52.931-57.436 95.221v.001l-.793.773c-31.036 30.267-31.036 80.161 0 110.428l.792.773c-11.36 42.29 14.729 85.543 57.435 95.222l.026.006.424 1.45c12.134 41.472 55.97 64.884 97.185 51.905l1.559-.491 2.297 2.295c30.112 30.085 78.905 30.085 109.017 0l2.298-2.295 1.557.49c41.216 12.98 85.052-10.431 97.186-51.904l.424-1.449.026-.006c42.709-9.68 68.798-52.932 57.439-95.223z" fill="#ffefe0" data-original="#ffefe0"></path><path d="m126.876 202.443c0-60.771 21.444-116.529 57.168-160.138-39.356-8.983-79.556 14.097-91.094 53.531l-.424 1.449-.026.006c-42.706 9.679-68.795 52.931-57.436 95.221l-.793.773c-31.036 30.268-31.036 80.161 0 110.428l.792.772c-11.36 42.291 14.729 85.543 57.435 95.222l.026.006.424 1.45c12.134 41.473 55.97 64.884 97.185 51.905l1.559-.491 2.297 2.295c26.633 26.608 67.869 29.665 97.879 9.206-101.158-34.909-164.992-146.064-164.992-261.635z" fill="#fbe5c8" data-original="#fbe5c8"></path><path d="m396.888 182.8c-1.28-3.851-6.405-4.579-8.7-1.233-9.444 13.764-25.289 22.792-43.243 22.792-18.551 0-34.851-9.639-44.164-24.182-1.941-3.031-6.327-3.038-8.282-.015-9.326 14.425-25.546 23.977-43.999 23.992-.015 0-.029.001-.044.001s-.029-.001-.044-.001c-18.452-.015-34.673-9.566-43.999-23.992-1.954-3.023-6.34-3.017-8.282.015-9.313 14.543-25.613 24.182-44.164 24.182-17.954 0-33.799-9.028-43.243-22.792-2.296-3.346-7.421-2.617-8.7 1.233-13.627 41.01-49.97 191.147 148.388 191.191v.001h.044.044v-.001c198.358-.044 162.015-150.182 148.388-191.191z" fill="#ffc9d3" data-original="#ffc9d3"></path><path d="m126.876 202.443c0-1.487.031-2.967.056-4.448-7.289-3.972-13.534-9.617-18.207-16.429-2.296-3.346-7.421-2.618-8.701 1.233-11.502 34.614-39.186 146.972 71.735 181.202-28.796-46.694-44.883-103.565-44.883-161.558z" fill="#ffb2c1" data-original="#ffb2c1"></path><g><g><g><ellipse cx="157.61" cy="279.188" fill="#ff889e" rx="26.707" ry="33.537" transform="matrix(.002 -1 1 .002 -121.923 436.185)" data-original="#ff889e"></ellipse></g><g><ellipse cx="339.39" cy="279.585" fill="#ff889e" rx="26.707" ry="33.537" transform="matrix(.002 -1 1 .002 59.063 618.363)" data-original="#ff889e"></ellipse></g></g></g><g fill="#423e4f"><path d="m177.477 238.166c-4.142 0-7.5 3.358-7.5 7.5v13.629c0 4.142 3.358 7.5 7.5 7.5s7.5-3.358 7.5-7.5v-13.629c0-4.142-3.358-7.5-7.5-7.5z" fill="#423e4f" data-original="#423e4f"></path><path d="m319.327 238.166c-4.142 0-7.5 3.358-7.5 7.5v13.629c0 4.142 3.358 7.5 7.5 7.5s7.5-3.358 7.5-7.5v-13.629c0-4.142-3.358-7.5-7.5-7.5z" fill="#423e4f" data-original="#423e4f"></path><path d="m281.444 259.921c-4.142 0-7.5 3.358-7.5 7.5 0 4.917-4 8.917-8.917 8.917s-8.917-4-8.917-8.917c0-4.142-3.358-7.5-7.5-7.5s-7.5 3.358-7.5 7.5c0 4.917-4 8.917-8.918 8.917-4.917 0-8.917-4-8.917-8.917 0-4.142-3.358-7.5-7.5-7.5s-7.5 3.358-7.5 7.5c0 13.188 10.729 23.917 23.917 23.917 6.353 0 12.131-2.494 16.418-6.549 4.287 4.055 10.065 6.549 16.417 6.549 13.188 0 23.917-10.729 23.917-23.917 0-4.142-3.358-7.5-7.5-7.5z" fill="#423e4f" data-original="#423e4f"></path></g></g></g></svg>