<svg xmlns="http://www.w3.org/2000/svg" version="1.1" xmlns:xlink="http://www.w3.org/1999/xlink" xmlns:svgjs="http://svgjs.com/svgjs" width="512" height="512" x="0" y="0" viewBox="0 0 32 32" style="enable-background:new 0 0 512 512" xml:space="preserve" class=""><g><g xmlns="http://www.w3.org/2000/svg" id="Frowning_Pig"><path d="m7.353 5.204c-1.657-.774-3.549-1.034-5.353-.736.918.855 1.28 2.146 1.469 3.385.189 1.24.251 2.521.732 3.679s1.517 2.2 2.771 2.227l4.381-4.922c-.929-1.575-2.343-2.859-4-3.633z" fill="#ffd9d9" data-original="#ffd9d9" class=""></path><path d="m9.9 10.469-2.928 3.29c-1.254-.027-2.289-1.069-2.771-2.227-.481-1.158-.543-2.439-.732-3.679s-.551-2.53-1.469-3.385c0 0 6.487 1.37 7.9 6.001z" fill="#ffc5c5" data-original="#ffc5c5"></path><path d="m9.9 10.469-2.928 3.29c-.022-.001-.045-.001-.067-.002.259-1.263.556-3.755-.758-5.68-1.066-1.561-3.471-3.16-4.146-3.609 0 0-.001-.001-.001-.001 0 .001 6.486 1.371 7.9 6.002z" fill="#ffbdbd" data-original="#ffbdbd"></path><path d="m24.647 5.204c1.657-.774 3.549-1.034 5.353-.736-.918.855-1.28 2.146-1.469 3.385-.189 1.24-.251 2.521-.732 3.679s-1.517 2.2-2.771 2.227l-4.381-4.922c.929-1.575 2.343-2.859 4-3.633z" fill="#ffd9d9" data-original="#ffd9d9" class=""></path><path d="m22.1 10.469 2.928 3.29c1.254-.027 2.289-1.069 2.771-2.227.481-1.158.543-2.439.733-3.679.188-1.24.55-2.53 1.468-3.385 0 0-6.487 1.37-7.9 6.001z" fill="#ffc5c5" data-original="#ffc5c5"></path><path d="m22.1 10.469 2.928 3.29c.022-.001.045-.001.067-.002-.259-1.263-.556-3.755.758-5.68 1.066-1.561 3.471-3.16 4.146-3.609 0 0 .001-.001.001-.001 0 .001-6.486 1.371-7.9 6.002z" fill="#ffbdbd" data-original="#ffbdbd"></path><path d="m16 27.652c7.427.006 14.855-4.222 12.159-12.703-1.871-5.887-7.013-8.9-12.159-8.923-5.146.023-10.288 3.036-12.159 8.924-2.696 8.48 4.732 12.709 12.159 12.702z" fill="#ffcdcc" data-original="#ffcdcc"></path><path d="m16 27.652c-7.428.007-14.855-4.222-12.159-12.703.003-.009.006-.018.009-.026-.638 6.556 5.756 9.825 12.15 9.82 6.394.006 12.788-3.264 12.151-9.82.003.009.006.017.009.026 2.695 8.481-4.732 12.71-12.16 12.703z" fill="#ffc5c5" data-original="#ffc5c5"></path><path d="m14.264 15.049c1.055-.709 2.417-.709 3.472 0 1.694 1.138 2.377 2.883 1.985 3.942-.377 1.019-1.848 1.668-3.533 1.613-.125-.004-.251-.004-.376 0-1.684.055-3.155-.594-3.533-1.613-.391-1.059.292-2.804 1.985-3.942z" fill="#fca2b1" data-original="#fca2b1"></path><ellipse cx="14.672" cy="18.049" fill="#fc839d" rx=".751" ry="1.113" data-original="#fc839d"></ellipse><ellipse cx="17.328" cy="18.049" fill="#fc839d" rx=".751" ry="1.113" data-original="#fc839d"></ellipse><path d="m15.423 18.049c0 .054-.002.108-.008.16-.052-.539-.365-.953-.743-.953s-.691.414-.743.953c-.005-.052-.008-.105-.008-.16 0-.615.336-1.113.751-1.113s.751.498.751 1.113z" fill="#ff6c93" data-original="#ff6c93"></path><path d="m18.079 18.049c0 .054-.002.108-.008.16-.052-.539-.365-.953-.743-.953s-.691.414-.743.953c-.005-.052-.008-.105-.008-.16 0-.615.336-1.113.751-1.113s.751.498.751 1.113z" fill="#ff6c93" data-original="#ff6c93"></path><path d="m21.057 9.201c-.189.857-3.277 1.183-5.057 1.183s-4.868-.326-5.057-1.183c-.186-.845 2.451-2.186 5.057-2.186s5.243 1.341 5.057 2.186z" fill="#ffd9d9" data-original="#ffd9d9" class=""></path><ellipse cx="8.489" cy="19.146" fill="#ff9999" rx="1.651" ry=".787" data-original="#ff9999"></ellipse><ellipse cx="7.519" cy="18.977" fill="#ffa4a4" rx=".363" ry=".253" transform="matrix(.961 -.277 .277 .961 -4.963 2.826)" data-original="#ffa4a4"></ellipse><ellipse cx="23.511" cy="19.146" fill="#ff9999" rx="1.651" ry=".787" data-original="#ff9999"></ellipse><ellipse cx="24.481" cy="18.977" fill="#ffa4a4" rx=".253" ry=".363" transform="matrix(.277 -.961 .961 .277 -.535 37.243)" data-original="#ffa4a4"></ellipse><ellipse cx="10.092" cy="14.206" fill="#422112" rx="1.298" ry="1.85" data-original="#422112"></ellipse><circle cx="9.605" cy="13.371" fill="#f8f4f1" r=".329" data-original="#f8f4f1"></circle><ellipse cx="21.908" cy="14.206" fill="#422112" rx="1.298" ry="1.85" data-original="#422112"></ellipse><circle cx="21.42" cy="13.371" fill="#f8f4f1" r=".329" data-original="#f8f4f1"></circle><g fill="#422112"><path d="m19.904 24.515c-.089 0-.18-.019-.266-.059-2.244-1.046-5.032-1.046-7.276 0-.316.147-.691.011-.838-.305s-.011-.691.305-.838c1.269-.592 2.711-.904 4.171-.904s2.902.313 4.171.904c.316.147.452.523.305.838-.107.229-.334.364-.572.364z" fill="#422112" data-original="#422112"></path><path d="m8.987 12.087c-.136 0-.271-.007-.406-.02-.282-.028-.488-.279-.46-.561s.279-.487.561-.46c.789.078 1.611-.147 2.199-.602.224-.173.546-.132.719.092s.132.546-.092.719c-.687.533-1.606.832-2.521.832z" fill="#422112" data-original="#422112"></path><path d="m23.013 12.087c-.915 0-1.834-.299-2.522-.831-.224-.173-.265-.495-.092-.719s.495-.265.719-.092c.588.455 1.41.68 2.199.602.282-.028.533.178.561.46s-.178.533-.46.561c-.134.012-.27.019-.405.019z" fill="#422112" data-original="#422112"></path></g></g></g></svg>