<svg width="512" height="512" xmlns="http://www.w3.org/2000/svg" xml:space="preserve" version="1.1">
 <g>
  <title>Layer 1</title>
  <g transform="rotate(-45.4424 256.078 245.401)" id="svg_1" stroke="null">
   <g id="XMLID_195_" stroke="null" xmlns="http://www.w3.org/2000/svg">
    <path data-original="#000000" fill="#000000" d="m267.0412,418.72663c1.97668,-13.61005 8.07828,-26.21251 17.71875,-35.85687c0.14542,-0.14533 0.28997,-0.29067 0.43365,-0.43778c35.38264,-36.00841 26.87942,-103.04309 -18.99184,-149.7265c-45.87213,-46.68341 -111.74185,-55.33613 -147.12449,-19.32772c-0.15761,0.1604 -0.31435,0.32169 -0.4711,0.48386c-9.46196,9.81186 -21.84192,16.01073 -35.20413,18.02857c-15.03238,2.27041 -29.49787,9.35813 -40.98963,21.26493c-27.44978,28.44304 -27.53686,74.54156 -0.18809,103.08474c6.59098,6.87946 14.1703,12.16379 22.27993,15.85476c28.87177,13.14037 51.8492,36.52417 64.76121,65.90656c3.62682,8.25305 8.81932,15.96553 15.57923,22.67308c28.05237,27.83866 73.36109,27.74384 101.30809,-0.20382c11.70336,-11.70298 18.66529,-26.43582 20.88841,-41.74381l0.00001,0z" id="XMLID_441_" stroke="null"/>
    <ellipse data-original="#000000" fill="#000000" transform="matrix(0.615646 -0.626534 0.615646 0.626534 39.2053 213.87)" ry="56.95" rx="71.818" cy="113.61587" cx="311.34281" id="XMLID_481_" stroke="null"/>
    <ellipse data-original="#000000" fill="#000000" transform="matrix(0.615646 -0.626534 0.615646 0.626534 -20.3695 81.8785)" ry="56.95" rx="71.818" cy="121.72787" cx="97.34581" id="XMLID_483_" stroke="null"/>
    <ellipse data-original="#000000" fill="#000000" transform="matrix(0.615646 -0.626534 0.615646 0.626534 -6.4857 326.126)" ry="56.95" rx="71.818" cy="240.29087" cx="438.01781" id="XMLID_84_" stroke="null"/>
    <ellipse data-original="#000000" fill="#000000" transform="matrix(0.615646 -0.626534 0.615646 0.626534 -139.382 374.281)" ry="56.95" rx="71.818" cy="451.68387" cx="427.30181" id="XMLID_5_" stroke="null"/>
   </g>
  </g>
 </g>

</svg>