<svg xmlns="http://www.w3.org/2000/svg" version="1.1" xmlns:xlink="http://www.w3.org/1999/xlink" xmlns:svgjs="http://svgjs.com/svgjs" width="512" height="512" x="0" y="0" viewBox="0 0 32 32" style="enable-background:new 0 0 512 512" xml:space="preserve"><g><g xmlns="http://www.w3.org/2000/svg" id="Pig_With_Laughing_Out_Loud"><path d="m7.353 5.204c-1.657-.774-3.549-1.034-5.353-.736.918.855 1.28 2.146 1.469 3.385.189 1.24.251 2.521.732 3.679s1.517 2.2 2.771 2.227l4.381-4.922c-.929-1.575-2.343-2.859-4-3.633z" fill="#ffd9d9" data-original="#ffd9d9"></path><path d="m9.9 10.469-2.928 3.29c-1.254-.027-2.289-1.069-2.771-2.227-.481-1.158-.543-2.439-.732-3.679s-.551-2.53-1.469-3.385c0 0 6.487 1.37 7.9 6.001z" fill="#ffc5c5" data-original="#ffc5c5"></path><path d="m9.9 10.469-2.928 3.29c-.022-.001-.045-.001-.067-.002.259-1.263.556-3.755-.758-5.68-1.066-1.561-3.471-3.16-4.146-3.609 0 0-.001-.001-.001-.001 0 .001 6.486 1.371 7.9 6.002z" fill="#ffbdbd" data-original="#ffbdbd"></path><path d="m24.647 5.204c1.657-.774 3.549-1.034 5.353-.736-.918.855-1.28 2.146-1.469 3.385-.189 1.24-.251 2.521-.732 3.679s-1.517 2.2-2.771 2.227l-4.381-4.922c.929-1.575 2.343-2.859 4-3.633z" fill="#ffd9d9" data-original="#ffd9d9"></path><path d="m22.1 10.469 2.928 3.29c1.254-.027 2.289-1.069 2.771-2.227.481-1.158.543-2.439.733-3.679.188-1.24.55-2.53 1.468-3.385 0 0-6.487 1.37-7.9 6.001z" fill="#ffc5c5" data-original="#ffc5c5"></path><path d="m22.1 10.469 2.928 3.29c.022-.001.045-.001.067-.002-.259-1.263-.556-3.755.758-5.68 1.066-1.561 3.471-3.16 4.146-3.609 0 0 .001-.001.001-.001 0 .001-6.486 1.371-7.9 6.002z" fill="#ffbdbd" data-original="#ffbdbd"></path><path d="m16 27.652c7.427.006 14.855-4.222 12.159-12.703-1.871-5.887-7.013-8.9-12.159-8.923-5.146.023-10.288 3.036-12.159 8.924-2.696 8.48 4.732 12.709 12.159 12.702z" fill="#ffcdcc" data-original="#ffcdcc"></path><path d="m16 27.652c-7.428.007-14.855-4.222-12.159-12.703.003-.009.006-.018.009-.026-.638 6.556 5.756 9.825 12.15 9.82 6.394.006 12.788-3.264 12.151-9.82.003.009.006.017.009.026 2.695 8.481-4.732 12.71-12.16 12.703z" fill="#ffc5c5" data-original="#ffc5c5"></path><path d="m14.264 15.049c1.055-.709 2.417-.709 3.472 0 1.694 1.138 2.377 2.883 1.985 3.942-.377 1.019-1.848 1.668-3.533 1.613-.125-.004-.251-.004-.376 0-1.684.055-3.155-.594-3.533-1.613-.391-1.059.292-2.804 1.985-3.942z" fill="#fca2b1" data-original="#fca2b1"></path><ellipse cx="14.672" cy="18.049" fill="#fc839d" rx=".751" ry="1.113" data-original="#fc839d"></ellipse><ellipse cx="17.328" cy="18.049" fill="#fc839d" rx=".751" ry="1.113" data-original="#fc839d"></ellipse><path d="m15.423 18.049c0 .054-.002.108-.008.16-.052-.539-.365-.953-.743-.953s-.691.414-.743.953c-.005-.052-.008-.105-.008-.16 0-.615.336-1.113.751-1.113s.751.498.751 1.113z" fill="#ff6c93" data-original="#ff6c93"></path><path d="m18.079 18.049c0 .054-.002.108-.008.16-.052-.539-.365-.953-.743-.953s-.691.414-.743.953c-.005-.052-.008-.105-.008-.16 0-.615.336-1.113.751-1.113s.751.498.751 1.113z" fill="#ff6c93" data-original="#ff6c93"></path><path d="m21.057 9.201c-.189.857-3.277 1.183-5.057 1.183s-4.868-.326-5.057-1.183c-.186-.845 2.451-2.186 5.057-2.186s5.243 1.341 5.057 2.186z" fill="#ffd9d9" data-original="#ffd9d9"></path><path d="m19.447 21.599c.261-.036.488.21.476.518-.096 2.542-2.01 3.813-3.924 3.813s-3.828-1.271-3.924-3.813c-.012-.308.215-.554.476-.518 1.032.141 2.187.234 3.447.234 1.262 0 2.417-.094 3.449-.234z" fill="#422112" data-original="#422112"></path><path d="m19.079 21.646v.506c0 .206-.11.39-.274.46-.645.278-1.613.585-2.805.585s-2.16-.307-2.805-.584c-.165-.071-.274-.255-.274-.46v-.506c.936.114 1.967.187 3.079.187s2.143-.074 3.079-.188z" fill="#f8f4f1" data-original="#f8f4f1"></path><path d="m19.079 21.646v.289c-.763.206-1.817.408-3.079.408s-2.316-.202-3.079-.408v-.289c.936.114 1.967.187 3.079.187s2.143-.073 3.079-.187z" fill="#eaeaea" data-original="#eaeaea"></path><path d="m18.708 24.919c-.737.674-1.723 1.011-2.708 1.011s-1.971-.337-2.708-1.011c.703-.477 1.657-.771 2.708-.771s2.005.293 2.708.771z" fill="#fe6941" data-original="#fe6941"></path><path d="m18.708 24.919c-1.215 1.115-3.128 1.309-4.584.572-.301-.152-.584-.344-.833-.572.091-.062.186-.121.285-.176.696.517 1.56.775 2.423.775s1.726-.259 2.423-.775c.1.055.195.114.286.176z" fill="#f95332" data-original="#f95332"></path><ellipse cx="8.489" cy="19.146" fill="#ff9999" rx="1.651" ry=".787" data-original="#ff9999"></ellipse><ellipse cx="7.519" cy="18.977" fill="#ffa4a4" rx=".363" ry=".253" transform="matrix(.961 -.277 .277 .961 -4.963 2.826)" data-original="#ffa4a4"></ellipse><ellipse cx="23.511" cy="19.146" fill="#ff9999" rx="1.651" ry=".787" data-original="#ff9999"></ellipse><ellipse cx="24.481" cy="18.977" fill="#ffa4a4" rx=".253" ry=".363" transform="matrix(.277 -.961 .961 .277 -.535 37.243)" data-original="#ffa4a4"></ellipse><g fill="#422112"><path d="m8.916 16.056c-.17 0-.335-.088-.426-.246-.136-.235-.055-.536.18-.672l1.616-.933-1.616-.932c-.235-.136-.316-.436-.18-.672.136-.235.436-.316.672-.18l2.353 1.358c.152.088.246.25.246.426s-.094.338-.246.426l-2.353 1.359c-.078.045-.162.066-.246.066z" fill="#422112" data-original="#422112"></path><path d="m23.084 16.056c.17 0 .335-.088.426-.246.136-.235.055-.536-.18-.672l-1.616-.933 1.616-.933c.235-.136.316-.436.18-.672-.136-.235-.436-.316-.672-.18l-2.353 1.358c-.152.088-.246.25-.246.426s.094.338.246.426l2.353 1.358c.078.047.162.068.246.068z" fill="#422112" data-original="#422112"></path></g></g></g></svg>