<svg width="297" height="297" xmlns="http://www.w3.org/2000/svg">

 <g>
  <title>Layer 1</title>
  <g transform="rotate(180 148.5 148.5)">
   <path d="m148.5,0c-82.014,0 -148.5,66.486 -148.5,148.5s66.486,148.5 148.5,148.5s148.5,-66.486 148.5,-148.5s-66.486,-148.5 -148.5,-148.5zm87.29,161.984l-78.501,45.323c-2.422,1.398 -5.159,2.137 -7.916,2.137c0,0 -0.167,0 -0.168,0c-8.752,0 -16.039,-7.12 -16.039,-15.872l0,-7.172l-36.044,20.907c-2.422,1.398 -5.242,2.137 -7.999,2.137c-8.753,0 -15.956,-7.12 -15.956,-15.872l0,-90.645c0,-8.752 7.287,-15.872 16.04,-15.872c2.757,0 5.411,0.738 7.833,2.137l36.128,20.907l0,-7.172c0,-8.752 7.287,-15.872 16.04,-15.872c2.757,0 5.577,0.738 7.999,2.137l78.543,45.323c4.966,2.867 7.951,8.001 7.951,13.734s-2.945,10.868 -7.911,13.735z"/>
   <g/>
   <g/>
   <g/>
   <g/>
   <g/>
   <g/>
   <g/>
   <g/>
   <g/>
   <g/>
   <g/>
   <g/>
   <g/>
   <g/>
   <g/>
  </g>
 </g>
</svg>